<?xml version="1.0" encoding="iso-8859-1"?>
<!-- Uploaded to: SVG Repo, www.svgrepo.com, Generator: SVG Repo Mixer Tools -->
<svg fill="#000000" version="1.1" id="Layer_1" xmlns="http://www.w3.org/2000/svg" xmlns:xlink="http://www.w3.org/1999/xlink" 
	 viewBox="0 0 490.001 490.001" xml:space="preserve">
<g>
	<g>
		<g>
			<path d="M450,0h-410c-22.056,0-40,17.944-40,40v280c0,22.056,17.944,40,40,40h235v120c0,4.118,2.524,7.814,6.358,9.314
				c1.184,0.463,2.417,0.687,3.639,0.687c2.738,0,5.42-1.126,7.35-3.218L409.38,360H450c22.056,0,40-17.944,40-40V40
				C490,17.944,472.057,0,450,0z M470,320c0,11.028-8.972,20-20,20h-45c-2.791,0-5.455,1.167-7.348,3.217L295,454.423V350
				c0-5.523-4.477-10-10-10h-245c-11.028,0-20-8.972-20-20V40c0-11.028,8.972-20,20-20h410c11.028,0,20,8.972,20,20V320z"/>
			<path d="M144.881,80.001c-3.957,0.047-7.513,2.423-9.072,6.06l-75,175l18.383,7.878L106.594,205h79.982l29.329,64.158
				l18.189-8.315l-80-175C152.45,82.244,148.863,79.974,144.881,80.001z M115.167,185l30.129-70.302L177.433,185H115.167z"/>
			<rect x="255.001" y="115" width="80" height="20"/>
			<rect x="350" y="115" width="60" height="20"/>
			<rect x="255.001" y="165" width="180" height="20"/>
			<rect x="255.001" y="215" width="75" height="20"/>
		</g>
	</g>
</g>
</svg>