<?xml version="1.0" encoding="utf-8"?>
<!-- Generator: Adobe Illustrator 27.1.1, SVG Export Plug-In . SVG Version: 6.00 Build 0)  -->
<svg version="1.1" id="Layer_2" xmlns="http://www.w3.org/2000/svg" xmlns:xlink="http://www.w3.org/1999/xlink" x="0px" y="0px"
	 viewBox="0 0 230.95 138.4" style="enable-background:new 0 0 230.95 138.4;" xml:space="preserve">
<style type="text/css">
	.st0{fill:url(#SVGID_1_);}
</style>
<linearGradient id="SVGID_1_" gradientUnits="userSpaceOnUse" x1="6.9304" y1="69.3812" x2="227.8391" y2="69.3812">
	<stop  offset="0" style="stop-color:#8CC542"/>
	<stop  offset="0.5502" style="stop-color:#079247"/>
	<stop  offset="1" style="stop-color:#0C6B38"/>
</linearGradient>
<path class="st0" d="M225.44,65.4c-11.03-18.27-26.63-33.56-45.11-44.22c-19.06-10.99-40.82-16.8-62.94-16.8s-43.89,5.81-62.94,16.8
	C35.96,31.84,20.37,47.13,9.33,65.4l-2.4,3.98l2.4,3.98c11.03,18.27,26.63,33.56,45.11,44.22c19.06,10.99,40.82,16.8,62.94,16.8
	s43.89-5.81,62.94-16.8c18.48-10.66,34.08-25.95,45.11-44.22l2.4-3.98L225.44,65.4z M25.03,69.38c9.48-14.29,22.23-26.28,37.1-34.86
	c16.72-9.65,35.83-14.74,55.25-14.74c10.14,0,20.2,1.39,29.87,4.09c-14.73,11.74-43.77,19.74-56.64,33.83
	c-16.63,18.22-11.3,45.82-11.3,45.82c62.4-25.08,65.73-67.77,65.73-67.77c-0.94,27.4-13.75,48.64-50.48,67.29
	c-6.79,3.45-11.46,6.62-14.65,9.44c-6.15-2.21-12.1-4.96-17.78-8.23C47.26,95.66,34.52,83.67,25.03,69.38z M172.63,104.24
	c-16.72,9.65-35.83,14.74-55.25,14.74c-9.81,0-19.55-1.3-28.93-3.84c12.74-4.62,31.72-9.97,48.86-25.88
	c18.48-17.15,20.63-45.02,19.93-62.09c5.3,2.04,10.45,4.49,15.39,7.34c14.87,8.58,27.62,20.57,37.1,34.86
	C200.25,83.67,187.5,95.66,172.63,104.24z"/>
</svg>
