<svg id="SvgjsSvg1031" width="288" height="288" xmlns="http://www.w3.org/2000/svg" version="1.1" xmlns:xlink="http://www.w3.org/1999/xlink" xmlns:svgjs="http://svgjs.com/svgjs"><defs id="SvgjsDefs1032"></defs><g id="SvgjsG1033"><svg xmlns="http://www.w3.org/2000/svg" id="Layer_1" x="0" y="0" version="1.1" viewBox="0 0 29 29" xml:space="preserve" width="288" height="288"><path d="m20.914 17.743-2.091 1.178a1.319 1.319 0 0 1-1.58-.217l-6.979-6.979a1.32 1.32 0 0 1-.217-1.58l1.178-2.091a1.978 1.978 0 0 0-.325-2.37L7.766 2.55a1.978 1.978 0 0 0-2.798 0L3.545 3.972a5.276 5.276 0 0 0-.793 6.446l.714 1.19a41.36 41.36 0 0 0 14.946 14.631l.141.081c2.102 1.201 4.699.851 6.382-.831l1.486-1.486a1.978 1.978 0 0 0 0-2.798l-3.136-3.136a1.978 1.978 0 0 0-2.371-.326z" fill="#ffffff" class="color000 svgShape"></path></svg></g></svg>