<?xml version="1.0" encoding="utf-8"?><!-- Uploaded to: SVG Repo, www.svgrepo.com, Generator: SVG Repo Mixer Tools -->
<svg width="800px" height="800px" viewBox="0 0 24 24" id="Layer_1" data-name="Layer 1" xmlns="http://www.w3.org/2000/svg"><defs><style>.cls-1{fill:none;stroke:#020202;stroke-miterlimit:10;stroke-width:1.91px;}</style></defs><path class="cls-1" d="M12,3.41h0a1.71,1.71,0,0,0-1.46.81L1.73,18.32a1.48,1.48,0,0,0-.23.79h0A1.48,1.48,0,0,0,3,20.59H21a1.48,1.48,0,0,0,1.48-1.48h0a1.48,1.48,0,0,0-.23-.79L13.46,4.22A1.71,1.71,0,0,0,12,3.41Z"/><line class="cls-1" x1="12" y1="8.18" x2="12" y2="14.86"/><line class="cls-1" x1="12" y1="15.82" x2="12" y2="17.73"/></svg>