<?xml version="1.0" encoding="utf-8"?>
<!-- Generator: Adobe Illustrator 27.1.1, SVG Export Plug-In . SVG Version: 6.00 Build 0)  -->
<svg version="1.1" id="Layer_1" xmlns="http://www.w3.org/2000/svg" xmlns:xlink="http://www.w3.org/1999/xlink" x="0px" y="0px"
	 viewBox="0 0 800 800" style="enable-background:new 0 0 800 800;" xml:space="preserve">
<style type="text/css">
	.st0{fill:none;stroke:#000000;stroke-width:66.6667;stroke-linecap:round;stroke-linejoin:round;stroke-miterlimit:133.3333;}
	.st1{fill:none;stroke:#000000;stroke-width:68;stroke-miterlimit:10;}
	.st2{fill:none;stroke:#000000;stroke-width:68;stroke-linecap:round;stroke-miterlimit:10;}
</style>
<path class="st0" d="M482.65,353.52L707,129.17"/>
<path class="st0" d="M707,329.17v-200H507"/>
<g>
	<path class="st1" d="M400,430.18"/>
	<path class="st2" d="M382.78,129.17H257v0c-36.67,0-66.67,30-66.67,66.67v120.68c0,11.67-13.33,18.33-23.33,11.67
		c-16.67-10-36.67-15-58.33-10c-33.33,6.67-60,31.67-66.67,63.33c-11.67,55,30,101.67,81.67,101.67c16.67,0,30-5,43.33-11.67
		c10-6.67,23.33,0,23.33,13.33v119.32c0,36.67,30,66.67,66.67,66.67h116.67c11.67,0,18.33-13.33,11.67-23.33
		c-10-16.67-15-36.67-10-58.33c6.67-33.33,31.67-60,63.33-66.67c53.33-11.67,101.67,30,101.67,81.67c0,16.67-5,30-11.67,43.33
		c-6.67,8.33,0,21.67,11.67,21.67h100c36.67,0,66.67-30,66.67-66.67V454.7"/>
</g>
</svg>
