<?xml version="1.0" encoding="UTF-8"?>
<svg xmlns="http://www.w3.org/2000/svg" version="1.1" viewBox="0 0 200 200">
  <defs>
    <style>
      .cls-1 {
        fill: #11494f;
      }
    </style>
  </defs>
  <!-- Generator: Adobe Illustrator 28.7.3, SVG Export Plug-In . SVG Version: 1.2.0 Build 164)  -->
  <g>
    <g id="Layer_1">
      <g>
        <path class="cls-1" d="M128.52867,67.51182c-1.04953-.59295-2.38137-.22368-2.97499.82585-.59328,1.0492-.22368,2.38434.82717,2.97762,1.61185.91809,2.59582,1.94193,3.2461,3.00035-2.69201.94543-5.07833,1.33448-7.18661,1.33448-3.08567-.00296-5.60968-.81729-7.73773-2.06513-2.12278-1.2508-3.83938-2.96082-5.14092-4.7354-2.14551-2.92425-4.93668-5.5293-8.22659-7.42972-3.28497-1.89482-7.08548-3.07875-11.16435-3.07875-3.57683-.00231-7.34605.91842-11.08068,2.96939-1.52686.83672-2.85046,1.81609-4.00343,2.88505-4.54335,1.74922-8.45817,2.37874-11.77015,2.37874-4.7186,0-8.24306-1.26793-10.59972-2.51314-1.17669-.62128-2.05689-1.23993-2.62646-1.68761-.28561-.22664-.49347-.40584-.6226-.52312l-.1344-.1288-.02108-.01977h-.00099c-.83705-.85913-2.2137-.8812-3.08007-.04744-.86736.8364-.89273,2.21897-.05567,3.08666.12156.1232,1.62305,1.65961,4.49723,3.18186,1.25805.66609,2.80006,1.32097,4.58123,1.85529-.47305.66609-1.11937,1.63985-1.82334,2.87945-1.35325,2.3873-2.90778,5.7375-3.69971,9.68888-.23652,1.18064.53037,2.3313,1.71265,2.56881,1.18229.23488,2.33394-.53201,2.56914-1.71529.66444-3.32746,2.02165-6.28532,3.21678-8.38701.59592-1.05217,1.14868-1.88922,1.54629-2.45187.19864-.28231.35808-.49808.46481-.63809.05271-.0672.09356-.12024.11727-.1512l.02537-.03097.00296-.00264.00099-.00296c.2016-.24608.33601-.52312.41276-.81432,1.11113.13704,2.27793.22104,3.51655.2184,2.29605.00264,4.81051-.26881,7.51801-.88416-1.34205,2.89362-1.89449,5.91341-1.89581,8.68086.00527,2.78755.53564,5.31716,1.48173,7.33221.51587,1.09137,1.81872,1.55585,2.90877,1.04096s1.55585-1.81905,1.03965-2.90745v-.00296c-.60712-1.26464-1.06929-3.2573-1.06205-5.46276-.00165-2.37874.51192-4.99795,1.74362-7.38789,1.23796-2.38994,3.16078-4.57003,6.13972-6.21021,3.14398-1.72089,6.14565-2.4265,8.98063-2.42881,3.22765,0,6.26852.93193,8.98293,2.49304,2.71178,1.56441,5.08096,3.76691,6.88552,6.22932,1.58813,2.16626,3.71256,4.30419,6.44673,5.91637,2.72825,1.61185,6.07844,2.67225,9.95439,2.66961,2.56453,0,5.35076-.46481,8.34254-1.48337l.00692.15647c0,1.06929-.16669,2.04306-.33304,2.73122-.08268.34424-.16504.61601-.22236.79225-.02932.08664-.05172.15087-.06555.18711l-.01285.03393-.00132.00527h.00132c-.44208,1.11673.10212,2.3817,1.21885,2.82938,1.11904.44801,2.39092-.09817,2.83894-1.2172.05567-.1568.93489-2.3369.94313-5.36229,0-1.73505-.30372-3.77251-1.31241-5.78394-1.00176-2.01078-2.73154-3.94183-5.31584-5.39457Z"/>
        <path class="cls-1" d="M133.39815,52.92909c-6.00268,0-10.8234-2.21106-14.15745-5.10468-1.6639-1.44384-2.94303-3.05899-3.78371-4.6033-.84496-1.54761-1.23269-3.01979-1.22709-4.12235,0-1.20633-.97805-2.18306-2.18405-2.18306s-2.18306.97673-2.18306,2.18306c.0056,2.05393.64764,4.15859,1.75877,6.20725,1.16285,2.13266,2.86167,4.20306,5.02068,6.02771-.43516.60448-1.03569,1.3829-1.80225,2.21666-1.6639,1.81609-4.06207,3.82818-6.92505,4.84411-1.13584.40552-1.7278,1.65665-1.32196,2.78985.40584,1.1365,1.65566,1.72978,2.79018,1.32361,3.88583-1.39641,6.7946-3.94282,8.76782-6.10908.87889-.96849,1.56276-1.85265,2.06809-2.56058,3.61307,2.08489,8.07505,3.46187,13.17974,3.4589,1.20469,0,2.18438-.9764,2.18438-2.18273-.00099-1.20567-.98035-2.18537-2.18504-2.18537Z"/>
        <path class="cls-1" d="M118.83979,95.63434c-4.08546,0-7.33155-.78929-9.94023-1.99529-3.90362-1.81345-6.43652-4.60067-8.03025-7.37965-.79456-1.38554-1.34304-2.76482-1.68893-3.97675-.34688-1.206-.48293-2.2641-.47996-2.90482,0-1.206-.97673-2.18306-2.18306-2.18306-1.20732,0-2.18405.97673-2.18405,2.18306,0,.78632.09356,1.65665.28561,2.61361.33304,1.66785.96685,3.59627,1.99397,5.58333,1.54102,2.97762,3.98663,6.10052,7.64154,8.47398.91513.59855,1.90569,1.14177,2.97169,1.62832.16669.71649.39761,1.99266.39596,3.5317,0,1.1197-.12024,2.36754-.45888,3.64667-.33864,1.27881-.88976,2.58331-1.76569,3.85091-.68684.99353-.43945,2.35337.55277,3.03922.99221.68552,2.35205.43945,3.0379-.55145,1.19217-1.72385,1.94753-3.5149,2.39817-5.22195.45196-1.70969.60317-3.3357.60317-4.7634,0-.71352-.0392-1.37401-.09817-1.97816,2.10466.48985,4.41059.77512,6.94844.77216,1.20535,0,2.18339-.97936,2.18339-2.1857,0-1.20337-.97805-2.18273-2.18339-2.18273Z"/>
        <path class="cls-1" d="M148.50301,62.83044c-1.08148-.93193-2.24829-1.69585-3.47999-2.23906-1.23005-.54255-2.52994-.86736-3.86079-.86736-1.206,0-2.18405.9764-2.18405,2.18273,0,1.2093.97805,2.1857,2.18405,2.1857.80345-.00264,1.81938.27704,2.8867.89569,1.60065.91776,3.26487,2.56618,4.47483,4.63131,1.21753,2.06249,1.98837,4.517,1.98706,7.05221-.00955,2.79051-.88844,5.7006-3.26718,8.59455-.76788.93193-.63644,2.30593.29384,3.07546.92929.76689,2.30626.63545,3.07447-.29384,2.99706-3.61604,4.27586-7.62639,4.26598-11.37616,0-2.27793-.45625-4.4577-1.2228-6.44476-1.1533-2.97828-2.99047-5.52733-5.15212-7.39645Z"/>
        <path class="cls-1" d="M72.46448,51.18843v-.00296c1.50018-1.77722,3.63712-3.17066,6.07284-4.10819,2.4321-.94016,5.14652-1.41057,7.68634-1.40761,2.47361-.0056,4.77691.45032,6.46617,1.23697,1.09565.50368,2.39257.028,2.89922-1.06897.505-1.09433.02668-2.38994-1.06732-2.89691-2.44034-1.122-5.30727-1.63721-8.29774-1.63985-3.06986,0-6.27313.55441-9.25635,1.69849-2.97597,1.14737-5.74771,2.89955-7.83688,5.36492-.77941.92073-.66477,2.30001.25596,3.07842.92007.78105,2.29869.66345,3.07776-.25431Z"/>
        <path class="cls-1" d="M174.63814,59.66209c-.38608-.39168-.80016-.76392-1.21984-1.13024.21939-1.22313.34688-2.46834.34688-3.73331.00132-3.3525-.79752-6.7666-2.46109-9.91783-1.90174-3.61307-4.7186-6.47902-8.00686-8.42094-2.30001-1.36017-4.82995-2.26673-7.45212-2.68938-.63644-2.26377-1.63458-4.41916-2.97499-6.37492-2.23182-3.2573-5.40544-5.95491-9.28863-7.62606-2.77733-1.1948-5.69204-1.76865-8.55469-1.76865,0,0-.08828-.00264-.24904.01153-3.63547.04217-7.17409.99616-10.30423,2.73978-1.22445-1.47481-2.6403-2.78755-4.21591-3.89308-3.45363-2.42617-7.67646-3.86475-12.19477-3.90955-.05205-.00264-.11464-.00527-.19172-.00791h-.05831c-.04184,0-.09224.00264-.15647.00527-3.93458.03097-7.65274,1.11673-10.829,2.99706-1.37697.81169-2.63338,1.78809-3.78634,2.87418-3.2909-2.05162-7.17969-3.24939-11.32148-3.26883l-.01515-.00264h-.12287c-.0504,0-.11365.00264-.19337.00824-4.40631.04184-8.53822,1.40761-11.94507,3.72474-1.97454,1.34074-3.70267,3.00035-5.13136,4.90011-1.80785-.48952-3.69543-.75536-5.62385-.75536-1.6046,0-3.23226.18184-4.85235.55145-4.77164,1.094-8.84754,3.71058-11.76817,7.20605h.00165c-2.04998,2.44857-3.52874,5.33659-4.34043,8.45158-3.11235,1.05513-6.04484,2.82378-8.49803,5.32243-.00132.00296-.00395.00593-.00692.00856-4.11379,4.19482-6.18485,9.68295-6.1832,15.13154v.08927h.00132c.00527,1.89449.26156,3.78338.76129,5.61923-2.80435,3.7534-4.31572,8.31191-4.31704,12.97747-.00132,3.45297.83145,6.96524,2.56189,10.2031,1.94489,3.63514,4.80524,6.5146,8.13237,8.46509,2.33394,1.36841,4.89616,2.27299,7.54996,2.69794,1.41354,3.79787,3.83675,7.07461,6.93757,9.50078,3.68851,2.89131,8.34122,4.601,13.32666,4.601.51785,0,1.03405-.01647,1.55025-.05567h.0224c2.20085-.15977,4.30946-.65489,6.27379-1.41881,1.30582,2.0928,2.94666,3.94249,4.853,5.46836,3.68686,2.95226,8.37581,4.71531,13.40176,4.73771.01812.00296.03327.00296.04908.00296h.09718l.05468-.00296h.01515c.40156-.00264.80477-.01944,1.206-.04447h.00593l.23619-.00593c1.79929-.13177,3.5373-.48161,5.1844-1.02416,2.07501,3.08139,4.96468,5.68084,8.53986,7.40502h-.00165c.51389.24772,1.05777.3482,1.58187.55244-.04151.33733-.12551.62952-.11036,1.0268.26881,10.56546,6.6098,31.39201-4.4745,40.33706-6.42368,6.2728-20.2583,7.81811-25.60082,14.04051l-.01944.26354c.03129.94576,2.54575.97739,6.15454.31229,8.09482-1.42671,16.44428-3.88748,24.55557-5.13565,7.97096-2.56815,12.66979,5.31946,19.72628,1.63491,2.67851-1.47613,4.93569-4.0759,8.23581-3.83806,3.10906.15153,5.91505,1.33744,9.15753,2.28946,4.92119,1.20139,13.50586,4.54072,16.77996,1.01791-.92402-2.90317-8.03618-4.71662-11.05103-6.46782-14.8634-6.87794-20.6816-21.07954-23.05539-36.15541-.46053-2.95555-.86637-5.86827-1.97256-8.18113,3.84893,3.33109,8.7642,5.36723,14.07576,5.3725,1.33382,0,2.68246-.1232,4.03176-.37784,5.18144-.97376,9.62135-3.74714,12.72777-7.53349h-.00132c2.02856-2.46537,3.48822-5.37579,4.26927-8.51582,3.58309-.35248,7.13884-1.60065,10.2815-3.81171,2.99047-2.09906,5.3076-4.84147,6.86049-7.9031,1.55354-3.05866,2.3537-6.43389,2.3537-9.83942,0-2.2697-.36928-4.54796-1.09565-6.74486,1.86517-1.51928,3.51457-3.37194,4.82995-5.54083,2.12706-3.4981,3.15122-7.39909,3.15122-11.23353-.00099-5.6054-2.17384-11.10439-6.23624-15.21851ZM171.19044,82.14528c-2.19525,3.61571-5.7342,5.86597-9.60027,6.53469-1.18953.20424-1.98706,1.33514-1.78282,2.52105.20424,1.18986,1.33349,1.98739,2.5217,1.78282.88844-.15087,1.76305-.37224,2.62086-.65159.93423,1.93106,1.39509,4.00179,1.39509,6.06724.00132,2.20777-.52048,4.4017-1.52488,6.38052-1.00638,1.97882-2.48975,3.73858-4.43728,5.10995-2.45286,1.71825-5.23744,2.5385-8.01214,2.54114-.21676,0-.43385-.0168-.6506-.02767-.04612-.36401-.09125-.72472-.15812-1.0861v-.00264c-.47865-2.5329-1.46361-4.85004-2.81686-6.86213l-.16504-.24641-.22401-.19304c-1.65533-1.41617-3.85091-3.74451-5.54544-6.11765-.84924-1.18393-1.57561-2.3817-2.06381-3.4477-.49413-1.06633-.72044-1.99826-.7122-2.54938,0-.24608.03657-.41144.07708-.52312.04315-.10937.084-.17393.16932-.26321.85188-.85056.85188-2.2361,0-3.08666-.85353-.8532-2.2361-.8532-3.08831,0v-.00264c-.53168.53135-.93324,1.1724-1.17965,1.84409-.24608.67169-.34556,1.36281-.34556,2.03186.00824,1.51401.4658,2.94666,1.10948,4.3681.97574,2.12146,2.43078,4.22875,4.00211,6.15125,1.47876,1.80785,3.05306,3.42827,4.46198,4.67084.96981,1.49425,1.67806,3.17923,2.0279,5.03451.14692.78072.22796,1.55585.23916,2.30297l.00132.0112c.00165.1008.00296.19897.00296.29944,0,3.30243-1.17438,6.42269-3.19306,8.88246-2.0223,2.45747-4.86717,4.23699-8.23482,4.87211-.8812.1657-1.75613.24674-2.61658.24674-4.63131.00264-8.91606-2.3201-11.49047-6.02541,1.38554-1.40497,2.56618-3.05602,3.46977-4.92515,1.12101-2.31714,1.7087-4.769,1.81642-7.19221.05337-1.2093-.8812-2.22753-2.08489-2.2809-1.206-.05304-2.22622.8812-2.27958,2.08522-.08268,1.85529-.5274,3.71354-1.38488,5.4845l-.00132.00593c-.91546,1.89713-2.19723,3.48394-3.72079,4.74067l-.00824.00527c-2.50326,2.05426-5.67128,3.18515-8.9075,3.18515-2.04009,0-4.1072-.44801-6.07317-1.3941-3.64074-1.75745-6.16903-4.86355-7.28741-8.43445l-.00132-.00264c-.42693-1.3549-.64797-2.77371-.64797-4.20339,0-2.04009.44801-4.10555,1.39773-6.08108.52476-1.0861.06753-2.38994-1.01889-2.91338-1.08544-.52312-2.39092-.0672-2.91437,1.01889-1.23993,2.56881-1.83157,5.29739-1.83157,7.9759,0,1.29824.14857,2.58298.41704,3.84235-1.70573.9316-3.62987,1.52488-5.70917,1.67938h-.00428c-.33831.0224-.67432.0336-1.0044.0336-3.27871,0-6.31628-1.1365-8.73159-3.06722-2.10169-1.67938-3.71223-3.95435-4.57267-6.58806,1.53773-1.51665,2.81093-3.29057,3.74154-5.25819.51488-1.08873.04875-2.3929-1.04096-2.90778-1.09005-.51521-2.3929-.0504-2.90811,1.04096-.8644,1.83025-2.11817,3.45363-3.66182,4.75484-2.1857,1.84409-4.94623,3.03362-8.02004,3.25466h-.00461c-.33733.02207-.673.03624-1.0044.03624-6.9346.00264-12.85361-5.11292-13.85274-11.96912l-.00264-.01713-.00264-.0168c-.05337-.32448-.09125-.66609-.11628-1.01856-.02372-.34161-.03591-.67729-.03591-1.01296,0-.88449.08235-1.74922.23883-2.59154.2184-1.18657-.56528-2.3257-1.75152-2.54674-1.18525-.2184-2.32438.56528-2.54378,1.75185-.20325,1.09697-.31097,2.2305-.31097,3.38643l.00428.12584c-1.96301-.21873-3.8687-.84233-5.57608-1.84409-2.15341-1.26233-3.99058-3.10642-5.25819-5.47396-1.12793-2.11026-1.65797-4.36579-1.65961-6.59629,0-2.87682.89306-5.70324,2.54542-8.06484.63216.89536,1.35292,1.74625,2.16033,2.53785,1.84014,1.80818,3.9751,3.14892,6.23821,4.02155,1.12365.43681,2.38862-.12287,2.82345-1.24784.43549-1.12497-.12419-2.38994-1.24784-2.82411-1.72682-.66872-3.3469-1.68432-4.75352-3.06689l-.00264-.00264c-1.23697-1.21193-2.19854-2.59418-2.89131-4.07459-.87724-1.87505-1.31768-3.90955-1.31768-5.94701.00099-3.54587,1.32624-7.06901,4.00014-9.80319,2.27365-2.31417,5.13565-3.66907,8.10997-4.07459h.0056l.00824-.00296c.62853-.08367,1.26069-.12847,1.89581-.12551,3.54455.00264,7.07461,1.32954,9.8078,4.00179.86176.84233,2.24433.82849,3.08798-.03327.84397-.86176.82849-2.24433-.03327-3.08699-3.47768-3.40587-7.9871-5.14652-12.5041-5.23315.51521-2.09049,1.49754-4.03242,2.86858-5.66963,1.89713-2.26673,4.50711-3.94611,7.61453-4.6626,1.05546-.24081,2.10762-.35808,3.14266-.35808,1.83025,0,3.60879.36401,5.25292,1.03009-.46778,1.62568-.72472,3.3413-.72472,5.11259,0,1.206.97805,2.18273,2.18405,2.18273s2.18273-.9764,2.18273-2.18273c0-1.91129.38509-3.73594,1.07226-5.39259,1.05447-2.52994,2.83729-4.69027,5.0803-6.21581,2.24763-1.52488,4.94392-2.40937,7.86818-2.41234,4.20734.00296,7.96602,1.84442,10.54208,4.77987l.00428.00296c2.16593,2.46537,3.47142,5.6894,3.47307,9.23757,0,1.206.9764,2.18273,2.18405,2.18273,1.20633,0,2.18273-.9764,2.18273-2.18273.00165-4.03242-1.30252-7.77693-3.51194-10.80792,1.13057-1.56705,2.57178-2.89362,4.23963-3.87891,2.08753-1.234,4.5114-1.93896,7.11941-1.93896,2.99574,0,5.75232.93456,8.02894,2.53258,2.27629,1.59472,4.05845,3.85289,5.06482,6.48594.5923,1.55815.91875,3.23424.92007,5.00223,0,1.206.97673,2.18306,2.18306,2.18306,1.206,0,2.18405-.97673,2.18405-2.18306,0-1.80258-.27012-3.54323-.75437-5.18868,2.58594-2.40937,6.01816-3.77218,9.55975-3.77218,1.84969,0,3.72507.36928,5.53853,1.14737,2.52862,1.08873,4.55883,2.82082,6.00696,4.93075,1.44681,2.10729,2.30033,4.58947,2.44462,7.15268.01417.26321.0224.52905.0224.79489-.00132,1.84969-.36664,3.72211-1.1444,5.53556-.47601,1.1085.03492,2.39257,1.14308,2.86825,1.10817.47832,2.39224-.03624,2.86825-1.14473.81004-1.88033,1.27617-3.83082,1.43396-5.77307,2.1409.14297,4.22612.79192,6.07284,1.88362,2.10861,1.24817,3.9023,3.06689,5.13235,5.40116v.00231c1.07621,2.03779,1.57989,4.20899,1.58121,6.35582,0,.98496-.11365,1.95873-.32184,2.91305-1.31834-.50928-2.67159-.85913-4.03572-1.05217-1.19382-.168-2.29737.66345-2.46537,1.86122-.168,1.19217.66312,2.29737,1.85825,2.46537,1.36973.19337,2.72034.58801,4.01562,1.19777.22961.37224.56825.68289,1.00078.86769.27012.11464.5498.17064.82684.17327.80576.53728,1.53938,1.13913,2.19393,1.80522l-.02932-.03064.03492.03624c2.61526,2.64194,4.0311,6.21021,4.02979,9.84502.00033,2.48152-.65423,4.98642-2.03976,7.26402Z"/>
      </g>
    </g>
  </g>
</svg>