<?xml version="1.0" encoding="utf-8"?><!-- Uploaded to: SVG Repo, www.svgrepo.com, Generator: SVG Repo Mixer Tools -->
<svg width="800px" height="800px" viewBox="0 0 24 24" fill="none" xmlns="http://www.w3.org/2000/svg">
<path fill-rule="evenodd" clip-rule="evenodd" d="M10 6.5C9.17157 6.5 8.5 7.17157 8.5 8C8.5 8.82843 9.17157 9.5 10 9.5C10.8284 9.5 11.5 8.82843 11.5 8C11.5 7.17157 10.8284 6.5 10 6.5ZM7 8C7 6.34315 8.34315 5 10 5C11.6569 5 13 6.34315 13 8C13 9.65685 11.6569 11 10 11C8.34315 11 7 9.65685 7 8Z" fill="#1F2328"/>
<path fill-rule="evenodd" clip-rule="evenodd" d="M16 6.5C15.4477 6.5 15 6.94772 15 7.5C15 8.05228 15.4477 8.5 16 8.5C16.5523 8.5 17 8.05228 17 7.5C17 6.94772 16.5523 6.5 16 6.5ZM13.5 7.5C13.5 6.11929 14.6193 5 16 5C17.3807 5 18.5 6.11929 18.5 7.5C18.5 8.88071 17.3807 10 16 10C14.6193 10 13.5 8.88071 13.5 7.5Z" fill="#1F2328"/>
<path fill-rule="evenodd" clip-rule="evenodd" d="M12.6939 12.6375C11.8834 12.2297 10.9679 12 10 12C6.68629 12 4 14.6863 4 18V20H16V18C16 17.6596 15.9716 17.3255 15.9169 17H20V14.75C20 12.6235 18.1515 11 16 11C14.6441 11 13.422 11.6366 12.6939 12.6375ZM13.9407 13.4754C14.5786 14.0315 15.0981 14.7205 15.4558 15.5H18.5V14.75C18.5 13.5628 17.4384 12.5 16 12.5C15.1288 12.5 14.3841 12.8975 13.9407 13.4754ZM10 13.5C7.51472 13.5 5.5 15.5147 5.5 18V18.5H14.5V18C14.5 17.4727 14.4096 16.9681 14.2441 16.4999C13.9244 15.5953 13.3224 14.8219 12.5431 14.2869C11.8199 13.7905 10.945 13.5 10 13.5Z" fill="#1F2328"/>
</svg>